<?xml version="1.0" encoding="UTF-8" standalone="no"?>
<svg
   version="1.1"
   id="Layer_1"
   x="0px"
   y="0px"
   viewBox="0 0 250.00001 250.00001"
   xml:space="preserve"
   sodipodi:docname="books.svg"
   width="250"
   height="250"
   inkscape:version="1.1.2 (0a00cf5339, 2022-02-04, custom)"
   xmlns:inkscape="http://www.inkscape.org/namespaces/inkscape"
   xmlns:sodipodi="http://sodipodi.sourceforge.net/DTD/sodipodi-0.dtd"
   xmlns="http://www.w3.org/2000/svg"
   xmlns:svg="http://www.w3.org/2000/svg"><defs
     id="defs5546" /><sodipodi:namedview
     id="namedview5544"
     pagecolor="#ffffff"
     bordercolor="#666666"
     borderopacity="1.0"
     inkscape:pageshadow="2"
     inkscape:pageopacity="0.0"
     inkscape:pagecheckerboard="0"
     showgrid="false"
     width="250px"
     inkscape:zoom="1.494914"
     inkscape:cx="177.93665"
     inkscape:cy="175.59538"
     inkscape:window-width="1916"
     inkscape:window-height="1029"
     inkscape:window-x="1920"
     inkscape:window-y="24"
     inkscape:window-maximized="1"
     inkscape:current-layer="Layer_1" /><style
     type="text/css"
     id="style5533">.st0{fill-rule:evenodd;clip-rule:evenodd;}</style><g
     id="g5541"
     transform="matrix(0.81379517,0,0,0.81379517,75.000849,84.534035)"
     style="fill:#ffeeaa"><path
       class="st0"
       d="M 64.48,0.38 H 82.9 c 1.85,0 3.36,1.51 3.36,3.36 V 18.58 H 61.12 V 3.74 c 0,-1.85 1.51,-3.36 3.36,-3.36 z M 86.27,27.65 V 72.84 H 61.12 V 27.65 Z m 0,54.27 v 13.8 c 0,1.85 -1.51,3.36 -3.36,3.36 H 64.48 c -1.85,0 -3.36,-1.51 -3.36,-3.36 v -13.8 z"
       id="path5535"
       style="fill:#ffeeaa" /><path
       class="st0"
       d="m 101.09,0.38 h 18.42 c 1.85,0 3.36,1.51 3.36,3.36 V 18.58 H 122.85 97.73 V 3.74 c 0,-1.85 1.52,-3.36 3.36,-3.36 z m 21.79,27.27 V 72.84 H 97.73 V 27.65 h 25.13 z m 0,54.27 v 13.8 c 0,1.85 -1.51,3.36 -3.36,3.36 H 101.1 c -1.85,0 -3.36,-1.51 -3.36,-3.36 v -13.8 z"
       id="path5537"
       style="fill:#ffeeaa" /><path
       class="st0"
       d="M 35.95,0.2 53.26,6.5 C 55,7.13 55.9,9.07 55.27,10.81 L 50.2,24.75 26.57,16.15 31.64,2.21 C 32.28,0.47 34.22,-0.43 35.95,0.2 Z M 47.1,33.28 31.65,75.75 8.02,67.15 23.47,24.69 Z m -18.55,51 -4.72,12.96 c -0.63,1.74 -2.57,2.64 -4.31,2.01 L 2.21,92.95 C 0.47,92.32 -0.43,90.38 0.2,88.64 L 4.92,75.68 Z"
       id="path5539"
       style="fill:#ffeeaa" /></g></svg>
