<?xml version="1.0" encoding="UTF-8" standalone="no"?>
<svg
   id="Layer_2"
   data-name="Layer 2"
   viewBox="0 0 256 256"
   version="1.1"
   sodipodi:docname="urbit_app_docs.svg"
   width="256"
   height="256"
   xml:space="preserve"
   xmlns:inkscape="http://www.inkscape.org/namespaces/inkscape"
   xmlns:sodipodi="http://sodipodi.sourceforge.net/DTD/sodipodi-0.dtd"
   xmlns="http://www.w3.org/2000/svg"
   xmlns:svg="http://www.w3.org/2000/svg"><sodipodi:namedview
     id="namedview8"
     pagecolor="#ffffff"
     bordercolor="#666666"
     borderopacity="1.0"
     inkscape:showpageshadow="2"
     inkscape:pageopacity="0.0"
     inkscape:pagecheckerboard="0"
     inkscape:deskcolor="#d1d1d1"
     showgrid="false"><inkscape:page
       x="0"
       y="0"
       width="256"
       height="256"
       id="page8"
       margin="0"
       bleed="0" /></sodipodi:namedview><defs
     id="defs1"><style
       id="style1">&#10;      .cls-1 {&#10;        fill: #3f3838;&#10;        stroke-width: 0px;&#10;      }&#10;    </style></defs><g
     id="Layer_1-2"
     data-name="Layer 1"
     transform="matrix(1.2690576,0,0,1.2690576,92.85345,60)"><g
       id="g8"><path
         class="cls-1"
         d="M 52.41,69.93 H 2.97 C 1.33,69.93 0,68.6 0,66.96 V 2.97 C 0,1.33 1.33,0 2.97,0 h 49.45 c 1.64,0 2.97,1.33 2.97,2.97 v 63.99 c 0,1.64 -1.33,2.97 -2.97,2.97 z M 5.93,63.99 H 49.44 V 5.94 H 5.94 V 64 Z"
         id="path1" /><path
         class="cls-1"
         d="m 40.98,17.34 h -15.2 c -1.64,0 -2.97,-1.33 -2.97,-2.97 0,-1.64 1.33,-2.97 2.97,-2.97 h 15.2 c 1.64,0 2.97,1.33 2.97,2.97 0,1.64 -1.33,2.97 -2.97,2.97 z"
         id="path2" /><path
         class="cls-1"
         d="m 40.98,37.93 h -15.2 c -1.64,0 -2.97,-1.33 -2.97,-2.97 0,-1.64 1.33,-2.97 2.97,-2.97 h 15.2 c 1.64,0 2.97,1.33 2.97,2.97 0,1.64 -1.33,2.97 -2.97,2.97 z"
         id="path3" /><path
         class="cls-1"
         d="m 40.98,58.52 h -15.2 c -1.64,0 -2.97,-1.33 -2.97,-2.97 0,-1.64 1.33,-2.97 2.97,-2.97 h 15.2 c 1.64,0 2.97,1.33 2.97,2.97 0,1.64 -1.33,2.97 -2.97,2.97 z"
         id="path4" /><path
         class="cls-1"
         d="m 40.98,48.22 h -15.2 c -1.64,0 -2.97,-1.33 -2.97,-2.97 0,-1.64 1.33,-2.97 2.97,-2.97 h 15.2 c 1.64,0 2.97,1.33 2.97,2.97 0,1.64 -1.33,2.97 -2.97,2.97 z"
         id="path5" /><path
         class="cls-1"
         d="m 40.98,27.64 h -15.2 c -1.64,0 -2.97,-1.33 -2.97,-2.97 0,-1.64 1.33,-2.97 2.97,-2.97 h 15.2 c 1.64,0 2.97,1.33 2.97,2.97 0,1.64 -1.33,2.97 -2.97,2.97 z"
         id="path6" /><circle
         class="cls-1"
         cx="14.38"
         cy="14.38"
         r="2.8499999"
         id="circle6" /><circle
         class="cls-1"
         cx="14.38"
         cy="55.549999"
         r="2.8499999"
         id="circle7" /><circle
         class="cls-1"
         cx="14.38"
         cy="34.959999"
         r="2.8499999"
         id="circle8" /></g></g></svg>
